<svg id="41706b8a-9b66-40b6-b26f-2ab22bd730aa" data-name="Layer 1" xmlns="http://www.w3.org/2000/svg" viewBox="0 0 30 30">
  <title>marker-NID</title>
  <path d="M15,27.57c-1.45-2.71-7.24-8.5-9-12.21a9,9,0,0,1-.9-3.8c.09-5,4.52-9.14,9.86-9.14s9.86,4.16,9.86,9.14a9,9,0,0,1-.9,3.8h0c-1.72,3.71-7.51,9.5-9,12.21Z" fill="#e5135e"/>
  <g>
    <path d="M24,16.36A1,1,0,0,1,23,14.94a8,8,0,0,0,.81-3.38c0-4.41-4.06-8.14-8.86-8.14S6.22,7.16,6.14,11.58A8,8,0,0,0,7,14.94a1,1,0,0,1-1.82.84,9.94,9.94,0,0,1-1-4.22C4.24,6,9.11,1.43,15,1.43S25.86,6.07,25.86,11.56a9.94,9.94,0,0,1-1,4.22A1,1,0,0,1,24,16.36Z" fill="#fff"/>
    <path d="M15.09,28.57a1,1,0,0,1-.71-1.7,1,1,0,0,1,1.42,0,1,1,0,0,1-.71,1.7Z" fill="#fff"/>
    <path d="M15,28.57a1,1,0,0,1-.88-.53,38.52,38.52,0,0,0-3.54-4.69C8.51,20.84,6.16,18,5.14,15.78A1,1,0,0,1,7,14.94c.92,2,3.18,4.72,5.17,7.14a38.14,38.14,0,0,1,3.76,5A1,1,0,0,1,15,28.57Z" fill="#fff"/>
    <path d="M15,28.57a1,1,0,0,1-.88-1.47,38.11,38.11,0,0,1,3.77-5c2-2.42,4.25-5.16,5.17-7.14a1,1,0,1,1,1.81.84c-1,2.21-3.37,5.06-5.44,7.57A38.52,38.52,0,0,0,15.88,28,1,1,0,0,1,15,28.57Z" fill="#fff"/>
  </g>
  <g>
    <polygon points="14.12 10.67 14.12 17.13 8.84 10.67 14.12 10.67 14.12 10.67" fill="#fff" fill-rule="evenodd"/>
    <path d="M15.79,10.67H17a3.11,3.11,0,0,1,3,3.17A3,3,0,0,1,17,17h-1.2V10.67Z" fill="#fff" fill-rule="evenodd"/>
    <path d="M13.84,9.34A1.12,1.12,0,1,1,15,10.45a1.12,1.12,0,0,1-1.12-1.12Z" fill="#fff" fill-rule="evenodd"/>
  </g>
</svg>
